<?xml version="1.0" encoding="utf-8"?>
<!-- Generator: Adobe Illustrator 21.1.0, SVG Export Plug-In . SVG Version: 6.00 Build 0)  -->
<svg version="1.1" id="Icon_Set" xmlns="http://www.w3.org/2000/svg" xmlns:xlink="http://www.w3.org/1999/xlink" x="0px" y="0px"
	 viewBox="0 0 512 512" style="enable-background:new 0 0 512 512;" xml:space="preserve">
<style type="text/css">
	.st0{fill:#FFFFFF;}
	.st1{fill:#7DAC51;}
	.st2{fill:#5B7C31;}
	.st3{fill:#463218;}
	.st4{fill:#FEFE71;}
	.st5{fill:#D6CD1E;}
	.st6{fill:#E56823;}
	.st7{fill:#FE8E46;}
	.st8{fill:none;stroke:#FFFFFF;stroke-width:10;stroke-miterlimit:10;}
	.st9{fill:none;stroke:#463218;stroke-width:14;stroke-linecap:round;stroke-linejoin:round;stroke-miterlimit:10;}
	.st10{fill:#FE8D47;}
	.st11{fill:#E56724;}
</style>
<g id="SPRING_LEAVES">
	<g>
		<g>
			<g>
				<path class="st4" d="M286.3,336.6c0,0,67.7-36.3,94.6-62.9l19.7,39.5c-40.4,47.5-119.7,21.9-119.7,21.9
					c-87.4-34.2-167.3-185.3-167.3-185.3"/>
			</g>
		</g>
		<g>
			<g>
				<path class="st7" d="M272.1,212.8C272.1,212.8,272.1,212.8,272.1,212.8c-17.3-18.1-57.9-33-91.4-34.4
					c-48-1.9-68.2-20.1-68.2-20.1s-14.9,108.5,34.6,174.7c0.1,0.2,0.3,0.4,0.4,0.6c0.5,0.6,0.9,1.2,1.4,1.8c0,0,0,0,0,0
					c2.1,2.7,4.4,5.4,6.9,7.9c34.2,34.3,89.7,34.5,124,0.4s34.3-89.6,0-124C277.4,217.3,274.8,215,272.1,212.8z"/>
			</g>
		</g>
		<g>
			<g>
				<path class="st6" d="M273.1,204.2C273.1,204.2,273.1,204.1,273.1,204.2c-17.3-18.1-57.9-33-91.4-34.4
					c-48-1.9-68.2-20.1-68.2-20.1s-1.8,12.8-2.1,32.4c9.6,5.5,29.2,13.9,61,15.2c33.6,1.3,74.1,16.2,91.4,34.3c0,0,0,0,0,0.1
					c2.7,2.1,5.3,4.4,7.8,6.9c20.6,20.7,28.8,49,24.6,75.7c17.7-33.1,12.5-75.2-15.4-103.2C278.4,208.6,275.8,206.3,273.1,204.2z"/>
			</g>
		</g>
		<g>
			<g>
				<path class="st3" d="M219.1,367.5c-24.3,0-48.7-9.3-67.2-27.9c-2.4-2.5-4.9-5.2-7.2-8.1c-0.1-0.1-0.2-0.3-0.4-0.4
					c-0.4-0.5-0.7-1-1.1-1.5l-0.5-0.7c-0.1-0.2-0.2-0.3-0.3-0.5c-14.6-19.6-33-55.6-37.1-115.8c-2.5-35.7,1.1-62.8,1.3-64
					c0.4-2.6,2.1-4.7,4.5-5.6c2.4-0.9,5.2-0.4,7.1,1.4c0,0,4.8,4.1,15,8.4c9.4,4,25.6,8.9,48.8,9.8c35.6,1.4,77.7,17.3,95.9,36.2
					c2.9,2.3,5.5,4.7,8,7.1c17.9,17.9,27.7,41.7,27.7,67c0,25.3-9.9,49-27.8,66.9C267.4,358.4,243.3,367.5,219.1,367.5z
					 M155.1,322.2c0.1,0.1,0.2,0.2,0.3,0.4c2.1,2.7,4.2,5,6.4,7.2c15.8,15.8,36.5,23.8,57.3,23.8c20.6,0,41.1-7.8,56.8-23.4
					c15.2-15.2,23.6-35.4,23.6-57c0-21.6-8.4-41.8-23.6-57.1c-2.2-2.2-4.5-4.3-7.2-6.4c-0.3-0.2-0.6-0.5-0.8-0.7
					c0,0-0.1-0.1-0.1-0.2c-15.9-16.4-54.5-30.7-86.4-32c-30.9-1.2-51-9-62-14.9c-2.1,28.9-3.7,107.5,34.3,158.4l0.8,1.1
					C154.7,321.6,154.9,321.9,155.1,322.2z"/>
			</g>
		</g>
		<g>
			<g>
				<path class="st3" d="M328.3,348.9c-0.9,0-1.9,0-2.8,0c-25.6-0.5-45.9-6.9-46.7-7.2c-0.1,0-0.3-0.1-0.4-0.1
					c-37.5-14.7-77.7-51-119.5-107.9c-30.9-42-51.2-80.3-51.4-80.7c-1.8-3.4-0.5-7.7,2.9-9.5c3.4-1.8,7.7-0.5,9.5,2.9
					c0.8,1.5,79.6,148.9,163.5,182c0.3,0.1,1.1,0.3,2.2,0.6c12.2-6.7,67.5-37.6,90.6-60.4c1.6-1.6,3.8-2.3,6.1-1.9
					c2.2,0.4,4.1,1.8,5.1,3.8l19.7,39.5c1.3,2.5,0.9,5.5-0.9,7.7C388.5,338.2,361.7,348.9,328.3,348.9z M306.5,333.3
					c24.2,3.3,61.6,3.3,85.7-21.4l-13.4-26.9C358.4,302.6,326.1,322.1,306.5,333.3z"/>
			</g>
		</g>
		<g>
			<g>
				<path class="st3" d="M204.1,287.4c-0.2,0-0.5,0-0.7,0l-81.4-8.2c-3.8-0.4-6.7-3.8-6.3-7.7s3.8-6.7,7.7-6.3l81.4,8.2
					c3.8,0.4,6.7,3.8,6.3,7.7C210.7,284.7,207.7,287.4,204.1,287.4z"/>
			</g>
		</g>
		<g>
			<g>
				<path class="st3" d="M181.9,259.5c-0.5,0-1-0.1-1.5-0.2c-3.8-0.8-6.1-4.6-5.3-8.4l17.9-79.5c0.8-3.8,4.6-6.1,8.4-5.3
					c3.8,0.8,6.1,4.6,5.3,8.4l-17.9,79.5C188,257.3,185.1,259.5,181.9,259.5z"/>
			</g>
		</g>
		<g>
			<g>
				<path class="st0" d="M271.6,245.8c-1.1-1.3-2.3-2.5-3.5-3.7c-2.2-2.3-4.7-4.4-7.4-6.5l6.2-7.8c3,2.3,5.7,4.8,8.2,7.3
					c1.3,1.3,2.6,2.7,3.9,4.1L271.6,245.8z"/>
			</g>
		</g>
		<g>
			<g>
				<path class="st0" d="M253.6,229.2c-5.7-4.3-12.7-8.4-20.9-12.1l4.1-9.1c8.9,4,16.6,8.5,22.9,13.3L253.6,229.2z"/>
			</g>
		</g>
	</g>
	<g>
		<g>
			<path class="st3" d="M236.7,314.3c-0.4,0-0.7,0-1.1-0.1c-3.8-0.6-6.4-4.2-5.8-8l8.5-54.1c0.6-3.8,4.2-6.4,8-5.8
				c3.8,0.6,6.4,4.2,5.8,8l-8.5,54.1C243.1,311.9,240.1,314.3,236.7,314.3z"/>
		</g>
	</g>
</g>
</svg>
